<svg width="371" height="3099" viewBox="0 0 371 3099" xmlns="http://www.w3.org/2000/svg">
<path d="M364.155 3098.85L358.143 3092.69C357.952 3092.49 357.952 3092.18 358.143 3091.98L358.947 3091.15C359.138 3090.95 359.447 3090.95 359.638 3091.15L364.5 3096.12L369.362 3091.15C369.553 3090.95 369.862 3090.95 370.053 3091.15L370.857 3091.98C371.048 3092.18 371.048 3092.49 370.857 3092.69L364.845 3098.85C364.654 3099.05 364.346 3099.05 364.155 3098.85Z" />
<path d="M5.20786 5.88906L0.121153 1.26908C-0.0403843 1.12116 -0.0403843 0.881983 0.121153 0.734068L0.801672 0.110936C0.963209 -0.0369788 1.22442 -0.0369788 1.38596 0.110936L5.5 3.84028L9.61405 0.110936C9.77558 -0.0369788 10.0368 -0.0369788 10.1983 0.110936L10.8788 0.734068C11.0404 0.881983 11.0404 1.12116 10.8788 1.26908L5.79214 5.88906C5.6306 6.03698 5.3694 6.03698 5.20786 5.88906Z" />
</svg>
